<mxfile host="Electron" agent="Mozilla/5.0 (Windows NT 10.0; Win64; x64) AppleWebKit/537.36 (KHTML, like Gecko) draw.io/27.0.9 Chrome/134.0.6998.205 Electron/35.4.0 Safari/537.36" version="27.0.9">
  <diagram name="Page-1" id="r5nAc7xVuk7UNNE1zsX5">
    <mxGraphModel dx="1722" dy="537" grid="1" gridSize="9" guides="1" tooltips="1" connect="1" arrows="0" fold="1" page="1" pageScale="1" pageWidth="850" pageHeight="1100" math="0" shadow="0">
      <root>
        <mxCell id="0" />
        <mxCell id="1" parent="0" />
        <mxCell id="3-WSOy0jhSaHZW4H2ldb-1" value="&lt;font style=&quot;font-size: 30px;&quot;&gt;&lt;b&gt;Hig&lt;font style=&quot;&quot;&gt;h Level Architecture&lt;/font&gt;&lt;/b&gt;&lt;/font&gt;" style="text;html=1;align=center;verticalAlign=middle;resizable=0;points=[];autosize=1;strokeColor=none;fillColor=none;" parent="1" vertex="1">
          <mxGeometry x="-24" y="21" width="360" height="45" as="geometry" />
        </mxCell>
        <mxCell id="3-WSOy0jhSaHZW4H2ldb-2" value="CRM" style="rounded=0;whiteSpace=wrap;html=1;fillColor=none;dashed=1;" parent="1" vertex="1">
          <mxGeometry x="15" y="144" width="159" height="360" as="geometry" />
        </mxCell>
        <mxCell id="3-WSOy0jhSaHZW4H2ldb-3" value="" style="rounded=0;whiteSpace=wrap;html=1;fillColor=none;dashed=1;" parent="1" vertex="1">
          <mxGeometry x="204" y="144" width="414" height="360" as="geometry" />
        </mxCell>
        <mxCell id="3-WSOy0jhSaHZW4H2ldb-5" value="&lt;font style=&quot;font-size: 22px;&quot;&gt;Data Warehouse&lt;/font&gt;" style="rounded=0;whiteSpace=wrap;html=1;fillColor=default;strokeColor=none;" parent="1" vertex="1">
          <mxGeometry x="319.5" y="120" width="189" height="33" as="geometry" />
        </mxCell>
        <mxCell id="3-WSOy0jhSaHZW4H2ldb-6" value="&lt;font style=&quot;font-size: 18px;&quot;&gt;SOURCES&lt;/font&gt;" style="rounded=0;whiteSpace=wrap;html=1;fillColor=default;strokeColor=none;" parent="1" vertex="1">
          <mxGeometry x="43.5" y="126" width="120" height="33" as="geometry" />
        </mxCell>
        <mxCell id="3-WSOy0jhSaHZW4H2ldb-7" value="" style="rounded=0;whiteSpace=wrap;html=1;fillColor=none;dashed=1;" parent="1" vertex="1">
          <mxGeometry x="670.5" y="144" width="159" height="360" as="geometry" />
        </mxCell>
        <mxCell id="3-WSOy0jhSaHZW4H2ldb-9" value="&lt;font style=&quot;font-size: 16px;&quot;&gt;CONSUME&lt;/font&gt;" style="rounded=0;whiteSpace=wrap;html=1;fillColor=default;strokeColor=none;" parent="1" vertex="1">
          <mxGeometry x="690" y="126" width="120" height="33" as="geometry" />
        </mxCell>
        <mxCell id="3-WSOy0jhSaHZW4H2ldb-10" value="&lt;b&gt;Bronze Layer&lt;/b&gt;" style="rounded=0;whiteSpace=wrap;html=1;fillColor=#fad7ac;strokeColor=#b46504;" parent="1" vertex="1">
          <mxGeometry x="216" y="162" width="120" height="27" as="geometry" />
        </mxCell>
        <mxCell id="3-WSOy0jhSaHZW4H2ldb-11" value="&lt;b&gt;Silver Layer&lt;/b&gt;" style="rounded=0;whiteSpace=wrap;html=1;fillColor=#f5f5f5;gradientColor=#b3b3b3;strokeColor=#666666;" parent="1" vertex="1">
          <mxGeometry x="351" y="162" width="120" height="27" as="geometry" />
        </mxCell>
        <mxCell id="3-WSOy0jhSaHZW4H2ldb-12" value="&lt;b&gt;Gold Layer&lt;/b&gt;" style="rounded=0;whiteSpace=wrap;html=1;fillColor=#ffcd28;gradientColor=#ffa500;strokeColor=#d79b00;" parent="1" vertex="1">
          <mxGeometry x="486" y="162" width="120" height="27" as="geometry" />
        </mxCell>
        <mxCell id="3-WSOy0jhSaHZW4H2ldb-13" style="edgeStyle=orthogonalEdgeStyle;rounded=0;orthogonalLoop=1;jettySize=auto;html=1;exitX=0.5;exitY=1;exitDx=0;exitDy=0;" parent="1" source="3-WSOy0jhSaHZW4H2ldb-11" target="3-WSOy0jhSaHZW4H2ldb-11" edge="1">
          <mxGeometry relative="1" as="geometry" />
        </mxCell>
        <mxCell id="3-WSOy0jhSaHZW4H2ldb-14" value="" style="rounded=0;whiteSpace=wrap;html=1;fillColor=none;strokeColor=#FFB570;" parent="1" vertex="1">
          <mxGeometry x="216" y="198" width="120" height="297" as="geometry" />
        </mxCell>
        <mxCell id="3-WSOy0jhSaHZW4H2ldb-15" value="" style="rounded=0;whiteSpace=wrap;html=1;strokeColor=#CCCCFF;" parent="1" vertex="1">
          <mxGeometry x="351" y="198" width="120" height="297" as="geometry" />
        </mxCell>
        <mxCell id="3-WSOy0jhSaHZW4H2ldb-16" value="" style="rounded=0;whiteSpace=wrap;html=1;strokeColor=#FF8000;" parent="1" vertex="1">
          <mxGeometry x="486" y="198" width="120" height="297" as="geometry" />
        </mxCell>
        <mxCell id="3-WSOy0jhSaHZW4H2ldb-18" value="" style="shape=note;whiteSpace=wrap;html=1;backgroundOutline=1;darkOpacity=0.05;fillColor=#FFD966;" parent="1" vertex="1">
          <mxGeometry x="54" y="189" width="54" height="63" as="geometry" />
        </mxCell>
        <mxCell id="3-WSOy0jhSaHZW4H2ldb-19" value="" style="shape=note;whiteSpace=wrap;html=1;backgroundOutline=1;darkOpacity=0.05;fillColor=#FFD966;" parent="1" vertex="1">
          <mxGeometry x="69" y="207" width="45" height="54" as="geometry" />
        </mxCell>
        <mxCell id="3-WSOy0jhSaHZW4H2ldb-20" value="" style="shape=note;whiteSpace=wrap;html=1;backgroundOutline=1;darkOpacity=0.05;fillColor=#FFD966;" parent="1" vertex="1">
          <mxGeometry x="54" y="292.5" width="49.5" height="63" as="geometry" />
        </mxCell>
        <mxCell id="3-WSOy0jhSaHZW4H2ldb-21" value="" style="shape=note;whiteSpace=wrap;html=1;backgroundOutline=1;darkOpacity=0.05;fillColor=#FFD966;size=24;" parent="1" vertex="1">
          <mxGeometry x="72" y="306" width="45" height="54" as="geometry" />
        </mxCell>
        <mxCell id="3-WSOy0jhSaHZW4H2ldb-22" value="ERP" style="text;html=1;align=center;verticalAlign=middle;resizable=0;points=[];autosize=1;strokeColor=none;fillColor=none;" parent="1" vertex="1">
          <mxGeometry x="72" y="360" width="45" height="27" as="geometry" />
        </mxCell>
        <mxCell id="3-WSOy0jhSaHZW4H2ldb-23" value="CRM" style="text;html=1;align=center;verticalAlign=middle;resizable=0;points=[];autosize=1;strokeColor=none;fillColor=none;" parent="1" vertex="1">
          <mxGeometry x="72" y="261" width="45" height="27" as="geometry" />
        </mxCell>
        <mxCell id="3-WSOy0jhSaHZW4H2ldb-27" value="" style="endArrow=none;html=1;rounded=0;" parent="1" edge="1">
          <mxGeometry width="50" height="50" relative="1" as="geometry">
            <mxPoint x="27" y="396" as="sourcePoint" />
            <mxPoint x="180" y="396" as="targetPoint" />
            <Array as="points">
              <mxPoint x="27" y="396" />
              <mxPoint x="99" y="396" />
              <mxPoint x="162" y="396" />
            </Array>
          </mxGeometry>
        </mxCell>
        <mxCell id="3-WSOy0jhSaHZW4H2ldb-29" value="&lt;b&gt;Object Type :&lt;/b&gt;&amp;nbsp; CSV Files&lt;div&gt;&lt;br&gt;&lt;div&gt;I&lt;b&gt;nterface :&lt;/b&gt; Files in Folder&lt;/div&gt;&lt;/div&gt;" style="text;html=1;align=center;verticalAlign=middle;resizable=0;points=[];autosize=1;strokeColor=none;fillColor=none;" parent="1" vertex="1">
          <mxGeometry x="21" y="414" width="162" height="54" as="geometry" />
        </mxCell>
        <mxCell id="3-WSOy0jhSaHZW4H2ldb-33" value="" style="sketch=0;shadow=0;dashed=0;html=1;strokeColor=none;labelPosition=center;verticalLabelPosition=bottom;verticalAlign=top;outlineConnect=0;align=center;shape=mxgraph.office.databases.database_mini_3;fillColor=#FFCE9F;" parent="1" vertex="1">
          <mxGeometry x="243" y="252" width="54" height="72" as="geometry" />
        </mxCell>
        <mxCell id="3-WSOy0jhSaHZW4H2ldb-34" value="" style="sketch=0;shadow=0;dashed=0;html=1;strokeColor=none;labelPosition=center;verticalLabelPosition=bottom;verticalAlign=top;outlineConnect=0;align=center;shape=mxgraph.office.databases.database_mini_3;fillColor=#CCCCFF;" parent="1" vertex="1">
          <mxGeometry x="384" y="252" width="54" height="72" as="geometry" />
        </mxCell>
        <mxCell id="3-WSOy0jhSaHZW4H2ldb-35" value="" style="sketch=0;shadow=0;dashed=0;html=1;strokeColor=none;labelPosition=center;verticalLabelPosition=bottom;verticalAlign=top;outlineConnect=0;align=center;shape=mxgraph.office.databases.database_mini_3;fillColor=#FF8000;" parent="1" vertex="1">
          <mxGeometry x="519" y="252" width="54" height="72" as="geometry" />
        </mxCell>
        <mxCell id="3-WSOy0jhSaHZW4H2ldb-38" value="" style="shape=flexArrow;endArrow=classic;html=1;rounded=0;entryX=0.033;entryY=0.36;entryDx=0;entryDy=0;entryPerimeter=0;endWidth=19;endSize=5.67;width=12;fillColor=#99CCFF;" parent="1" edge="1">
          <mxGeometry width="50" height="50" relative="1" as="geometry">
            <mxPoint x="324" y="306" as="sourcePoint" />
            <mxPoint x="363" y="306" as="targetPoint" />
          </mxGeometry>
        </mxCell>
        <mxCell id="3-WSOy0jhSaHZW4H2ldb-40" value="" style="shape=flexArrow;endArrow=classic;html=1;rounded=0;entryX=0.033;entryY=0.36;entryDx=0;entryDy=0;entryPerimeter=0;endWidth=19;endSize=5.67;width=12;fillColor=#99CCFF;" parent="1" edge="1">
          <mxGeometry width="50" height="50" relative="1" as="geometry">
            <mxPoint x="459" y="306" as="sourcePoint" />
            <mxPoint x="498" y="306" as="targetPoint" />
          </mxGeometry>
        </mxCell>
        <mxCell id="3-WSOy0jhSaHZW4H2ldb-41" value="" style="shape=flexArrow;endArrow=classic;html=1;rounded=0;entryX=0.033;entryY=0.36;entryDx=0;entryDy=0;entryPerimeter=0;endWidth=19;endSize=5.67;width=12;fillColor=#99CCFF;" parent="1" edge="1">
          <mxGeometry width="50" height="50" relative="1" as="geometry">
            <mxPoint x="592.5" y="306" as="sourcePoint" />
            <mxPoint x="676.5" y="306" as="targetPoint" />
          </mxGeometry>
        </mxCell>
        <mxCell id="3-WSOy0jhSaHZW4H2ldb-43" value="&lt;font style=&quot;font-size: 13px;&quot;&gt;Raw Data&amp;nbsp;&lt;/font&gt;" style="text;html=1;align=center;verticalAlign=middle;resizable=0;points=[];autosize=1;strokeColor=none;fillColor=none;" parent="1" vertex="1">
          <mxGeometry x="229.5" y="342" width="81" height="27" as="geometry" />
        </mxCell>
        <mxCell id="3-WSOy0jhSaHZW4H2ldb-44" value="Cleaned, Standardized&amp;nbsp;&lt;div&gt;Data&lt;/div&gt;" style="text;html=1;align=center;verticalAlign=middle;resizable=0;points=[];autosize=1;strokeColor=none;fillColor=none;" parent="1" vertex="1">
          <mxGeometry x="342" y="342" width="144" height="45" as="geometry" />
        </mxCell>
        <mxCell id="3-WSOy0jhSaHZW4H2ldb-45" value="Business Ready&lt;div&gt;Data&lt;/div&gt;" style="text;html=1;align=center;verticalAlign=middle;resizable=0;points=[];autosize=1;strokeColor=none;fillColor=none;" parent="1" vertex="1">
          <mxGeometry x="498" y="342" width="108" height="45" as="geometry" />
        </mxCell>
        <mxCell id="3-WSOy0jhSaHZW4H2ldb-47" value="" style="endArrow=none;html=1;rounded=0;" parent="1" edge="1">
          <mxGeometry width="50" height="50" relative="1" as="geometry">
            <mxPoint x="228" y="396" as="sourcePoint" />
            <mxPoint x="327" y="396" as="targetPoint" />
            <Array as="points">
              <mxPoint x="216" y="396" />
              <mxPoint x="273" y="396" />
              <mxPoint x="327" y="396" />
            </Array>
          </mxGeometry>
        </mxCell>
        <mxCell id="3-WSOy0jhSaHZW4H2ldb-48" value="" style="endArrow=none;html=1;rounded=0;" parent="1" edge="1">
          <mxGeometry width="50" height="50" relative="1" as="geometry">
            <mxPoint x="367.5" y="396" as="sourcePoint" />
            <mxPoint x="466.5" y="396" as="targetPoint" />
            <Array as="points">
              <mxPoint x="355.5" y="396" />
              <mxPoint x="412.5" y="396" />
              <mxPoint x="466.5" y="396" />
            </Array>
          </mxGeometry>
        </mxCell>
        <mxCell id="3-WSOy0jhSaHZW4H2ldb-49" value="" style="endArrow=none;html=1;rounded=0;" parent="1" edge="1">
          <mxGeometry width="50" height="50" relative="1" as="geometry">
            <mxPoint x="508.5" y="396" as="sourcePoint" />
            <mxPoint x="607.5" y="396" as="targetPoint" />
            <Array as="points">
              <mxPoint x="496.5" y="396" />
              <mxPoint x="553.5" y="396" />
              <mxPoint x="607.5" y="396" />
            </Array>
          </mxGeometry>
        </mxCell>
        <mxCell id="3-WSOy0jhSaHZW4H2ldb-50" value="&lt;b&gt;&amp;nbsp; &amp;nbsp;Object Type :&lt;/b&gt;&amp;nbsp; Tables&lt;div&gt;&lt;b style=&quot;background-color: transparent; color: light-dark(rgb(0, 0, 0), rgb(255, 255, 255));&quot;&gt;Load:&lt;/b&gt;&lt;div&gt;&lt;div&gt;&lt;span style=&quot;background-color: transparent; color: light-dark(rgb(0, 0, 0), rgb(255, 255, 255));&quot;&gt;&amp;nbsp; &amp;nbsp; &amp;nbsp; &amp;nbsp; &amp;nbsp; &amp;nbsp;Batch Processing&lt;/span&gt;&lt;/div&gt;&lt;div&gt;&lt;span style=&quot;background-color: transparent; color: light-dark(rgb(0, 0, 0), rgb(255, 255, 255));&quot;&gt;Full Load&lt;/span&gt;&lt;/div&gt;&lt;div&gt;&lt;span style=&quot;background-color: transparent; color: light-dark(rgb(0, 0, 0), rgb(255, 255, 255));&quot;&gt;&amp;nbsp; &amp;nbsp; &amp;nbsp; &amp;nbsp; &amp;nbsp; &amp;nbsp;Truncate &amp;amp; Insert&lt;/span&gt;&lt;/div&gt;&lt;div&gt;&lt;b&gt;&amp;nbsp; &amp;nbsp;No Transformations&lt;/b&gt;&lt;/div&gt;&lt;/div&gt;&lt;/div&gt;" style="text;html=1;align=center;verticalAlign=middle;resizable=0;points=[];autosize=1;strokeColor=none;fillColor=none;" parent="1" vertex="1">
          <mxGeometry x="193.5" y="405" width="153" height="99" as="geometry" />
        </mxCell>
        <mxCell id="3-WSOy0jhSaHZW4H2ldb-51" value="&lt;b&gt;&amp;nbsp; &amp;nbsp;Object Type :&lt;/b&gt;&amp;nbsp; Tables&lt;div&gt;&lt;b style=&quot;background-color: transparent; color: light-dark(rgb(0, 0, 0), rgb(255, 255, 255));&quot;&gt;Load:&lt;/b&gt;&lt;div&gt;&lt;div&gt;&lt;span style=&quot;background-color: transparent; color: light-dark(rgb(0, 0, 0), rgb(255, 255, 255));&quot;&gt;&amp;nbsp; &amp;nbsp; &amp;nbsp; &amp;nbsp; &amp;nbsp; &amp;nbsp;Batch Processing&lt;/span&gt;&lt;/div&gt;&lt;div&gt;&lt;span style=&quot;background-color: transparent; color: light-dark(rgb(0, 0, 0), rgb(255, 255, 255));&quot;&gt;Full Load&lt;/span&gt;&lt;/div&gt;&lt;div&gt;&lt;span style=&quot;background-color: transparent; color: light-dark(rgb(0, 0, 0), rgb(255, 255, 255));&quot;&gt;&amp;nbsp; &amp;nbsp; &amp;nbsp; &amp;nbsp; &amp;nbsp; &amp;nbsp;Truncate &amp;amp; Insert&lt;/span&gt;&lt;/div&gt;&lt;div&gt;&lt;b&gt;&amp;nbsp; &amp;nbsp;DataTransformations&lt;/b&gt;&lt;/div&gt;&lt;/div&gt;&lt;/div&gt;" style="text;html=1;align=center;verticalAlign=middle;resizable=0;points=[];autosize=1;strokeColor=none;fillColor=none;" parent="1" vertex="1">
          <mxGeometry x="333" y="405" width="153" height="99" as="geometry" />
        </mxCell>
        <mxCell id="3-WSOy0jhSaHZW4H2ldb-52" value="&lt;b&gt;&amp;nbsp; &amp;nbsp;Object Type :&lt;/b&gt;&amp;nbsp; Tables&lt;div&gt;&lt;b style=&quot;background-color: transparent; color: light-dark(rgb(0, 0, 0), rgb(255, 255, 255));&quot;&gt;No Load&lt;/b&gt;&lt;/div&gt;&lt;div&gt;&lt;b style=&quot;background-color: transparent; color: light-dark(rgb(0, 0, 0), rgb(255, 255, 255));&quot;&gt;&amp;nbsp;Transformations&lt;/b&gt;&lt;/div&gt;&lt;div&gt;&lt;b style=&quot;background-color: transparent; color: light-dark(rgb(0, 0, 0), rgb(255, 255, 255));&quot;&gt;Data Model:&lt;/b&gt;&lt;/div&gt;&lt;div&gt;Star Schema&lt;/div&gt;&lt;div&gt;Flat Table&lt;/div&gt;&lt;div&gt;Aggregated Table&lt;/div&gt;" style="text;html=1;align=center;verticalAlign=middle;resizable=0;points=[];autosize=1;strokeColor=none;fillColor=none;" parent="1" vertex="1">
          <mxGeometry x="471" y="387" width="144" height="117" as="geometry" />
        </mxCell>
        <mxCell id="3-WSOy0jhSaHZW4H2ldb-53" value="" style="image;aspect=fixed;html=1;points=[];align=center;fontSize=12;image=img/lib/azure2/power_platform/PowerBI.svg;" parent="1" vertex="1">
          <mxGeometry x="693" y="184" width="51" height="68" as="geometry" />
        </mxCell>
        <mxCell id="3-WSOy0jhSaHZW4H2ldb-61" value="" style="shape=table;startSize=0;container=1;collapsible=0;childLayout=tableLayout;fontSize=16;" parent="1" vertex="1">
          <mxGeometry x="735" y="216" width="30" height="36" as="geometry" />
        </mxCell>
        <mxCell id="3-WSOy0jhSaHZW4H2ldb-62" value="" style="shape=tableRow;horizontal=0;startSize=0;swimlaneHead=0;swimlaneBody=0;strokeColor=inherit;top=0;left=0;bottom=0;right=0;collapsible=0;dropTarget=0;fillColor=none;points=[[0,0.5],[1,0.5]];portConstraint=eastwest;fontSize=16;" parent="3-WSOy0jhSaHZW4H2ldb-61" vertex="1">
          <mxGeometry width="30" height="4" as="geometry" />
        </mxCell>
        <mxCell id="3-WSOy0jhSaHZW4H2ldb-63" value="" style="shape=partialRectangle;html=1;whiteSpace=wrap;connectable=0;strokeColor=inherit;overflow=hidden;fillColor=none;top=0;left=0;bottom=0;right=0;pointerEvents=1;fontSize=16;" parent="3-WSOy0jhSaHZW4H2ldb-62" vertex="1">
          <mxGeometry width="10" height="4" as="geometry">
            <mxRectangle width="10" height="4" as="alternateBounds" />
          </mxGeometry>
        </mxCell>
        <mxCell id="3-WSOy0jhSaHZW4H2ldb-64" value="" style="shape=partialRectangle;html=1;whiteSpace=wrap;connectable=0;strokeColor=inherit;overflow=hidden;fillColor=none;top=0;left=0;bottom=0;right=0;pointerEvents=1;fontSize=16;" parent="3-WSOy0jhSaHZW4H2ldb-62" vertex="1">
          <mxGeometry x="10" height="4" as="geometry">
            <mxRectangle height="4" as="alternateBounds" />
          </mxGeometry>
        </mxCell>
        <mxCell id="3-WSOy0jhSaHZW4H2ldb-65" value="" style="shape=partialRectangle;html=1;whiteSpace=wrap;connectable=0;strokeColor=inherit;overflow=hidden;fillColor=none;top=0;left=0;bottom=0;right=0;pointerEvents=1;fontSize=16;" parent="3-WSOy0jhSaHZW4H2ldb-62" vertex="1">
          <mxGeometry x="10" width="20" height="4" as="geometry">
            <mxRectangle width="20" height="4" as="alternateBounds" />
          </mxGeometry>
        </mxCell>
        <mxCell id="3-WSOy0jhSaHZW4H2ldb-66" value="" style="shape=tableRow;horizontal=0;startSize=0;swimlaneHead=0;swimlaneBody=0;strokeColor=inherit;top=0;left=0;bottom=0;right=0;collapsible=0;dropTarget=0;fillColor=none;points=[[0,0.5],[1,0.5]];portConstraint=eastwest;fontSize=16;" parent="3-WSOy0jhSaHZW4H2ldb-61" vertex="1">
          <mxGeometry y="4" width="30" height="28" as="geometry" />
        </mxCell>
        <mxCell id="3-WSOy0jhSaHZW4H2ldb-67" value="" style="shape=partialRectangle;html=1;whiteSpace=wrap;connectable=0;strokeColor=inherit;overflow=hidden;fillColor=none;top=0;left=0;bottom=0;right=0;pointerEvents=1;fontSize=16;" parent="3-WSOy0jhSaHZW4H2ldb-66" vertex="1">
          <mxGeometry width="10" height="28" as="geometry">
            <mxRectangle width="10" height="28" as="alternateBounds" />
          </mxGeometry>
        </mxCell>
        <mxCell id="3-WSOy0jhSaHZW4H2ldb-68" value="" style="shape=partialRectangle;html=1;whiteSpace=wrap;connectable=0;strokeColor=inherit;overflow=hidden;fillColor=none;top=0;left=0;bottom=0;right=0;pointerEvents=1;fontSize=16;" parent="3-WSOy0jhSaHZW4H2ldb-66" vertex="1">
          <mxGeometry x="10" height="28" as="geometry">
            <mxRectangle height="28" as="alternateBounds" />
          </mxGeometry>
        </mxCell>
        <mxCell id="3-WSOy0jhSaHZW4H2ldb-69" value="" style="shape=partialRectangle;html=1;whiteSpace=wrap;connectable=0;strokeColor=inherit;overflow=hidden;fillColor=none;top=0;left=0;bottom=0;right=0;pointerEvents=1;fontSize=16;" parent="3-WSOy0jhSaHZW4H2ldb-66" vertex="1">
          <mxGeometry x="10" width="20" height="28" as="geometry">
            <mxRectangle width="20" height="28" as="alternateBounds" />
          </mxGeometry>
        </mxCell>
        <mxCell id="3-WSOy0jhSaHZW4H2ldb-70" value="" style="shape=tableRow;horizontal=0;startSize=0;swimlaneHead=0;swimlaneBody=0;strokeColor=inherit;top=0;left=0;bottom=0;right=0;collapsible=0;dropTarget=0;fillColor=none;points=[[0,0.5],[1,0.5]];portConstraint=eastwest;fontSize=16;" parent="3-WSOy0jhSaHZW4H2ldb-61" vertex="1">
          <mxGeometry y="32" width="30" height="4" as="geometry" />
        </mxCell>
        <mxCell id="3-WSOy0jhSaHZW4H2ldb-71" value="" style="shape=partialRectangle;html=1;whiteSpace=wrap;connectable=0;strokeColor=inherit;overflow=hidden;fillColor=none;top=0;left=0;bottom=0;right=0;pointerEvents=1;fontSize=16;" parent="3-WSOy0jhSaHZW4H2ldb-70" vertex="1">
          <mxGeometry width="10" height="4" as="geometry">
            <mxRectangle width="10" height="4" as="alternateBounds" />
          </mxGeometry>
        </mxCell>
        <mxCell id="3-WSOy0jhSaHZW4H2ldb-72" value="" style="shape=partialRectangle;html=1;whiteSpace=wrap;connectable=0;strokeColor=inherit;overflow=hidden;fillColor=none;top=0;left=0;bottom=0;right=0;pointerEvents=1;fontSize=16;" parent="3-WSOy0jhSaHZW4H2ldb-70" vertex="1">
          <mxGeometry x="10" height="4" as="geometry">
            <mxRectangle height="4" as="alternateBounds" />
          </mxGeometry>
        </mxCell>
        <mxCell id="3-WSOy0jhSaHZW4H2ldb-73" value="" style="shape=partialRectangle;html=1;whiteSpace=wrap;connectable=0;strokeColor=inherit;overflow=hidden;fillColor=none;top=0;left=0;bottom=0;right=0;pointerEvents=1;fontSize=16;" parent="3-WSOy0jhSaHZW4H2ldb-70" vertex="1">
          <mxGeometry x="10" width="20" height="4" as="geometry">
            <mxRectangle width="20" height="4" as="alternateBounds" />
          </mxGeometry>
        </mxCell>
        <mxCell id="3-WSOy0jhSaHZW4H2ldb-74" value="PowerBI/Reporting" style="text;html=1;align=center;verticalAlign=middle;resizable=0;points=[];autosize=1;strokeColor=none;fillColor=none;" parent="1" vertex="1">
          <mxGeometry x="673.9" y="252" width="126" height="27" as="geometry" />
        </mxCell>
        <mxCell id="3-WSOy0jhSaHZW4H2ldb-76" value="" style="points=[];aspect=fixed;html=1;align=center;shadow=0;dashed=0;fillColor=#FF6A00;strokeColor=none;shape=mxgraph.alibaba_cloud.machine_learning;" parent="1" vertex="1">
          <mxGeometry x="715.2" y="415.95" width="49.8" height="50.099999999999994" as="geometry" />
        </mxCell>
        <mxCell id="3-WSOy0jhSaHZW4H2ldb-77" value="Machne&amp;nbsp;&lt;div&gt;Learning&lt;/div&gt;" style="text;html=1;align=center;verticalAlign=middle;resizable=0;points=[];autosize=1;strokeColor=none;fillColor=none;" parent="1" vertex="1">
          <mxGeometry x="700.9" y="459" width="72" height="45" as="geometry" />
        </mxCell>
        <mxCell id="3-WSOy0jhSaHZW4H2ldb-78" value="Ad-Hoc&lt;div&gt;SQL&amp;nbsp;&lt;span style=&quot;background-color: transparent; color: light-dark(rgb(0, 0, 0), rgb(255, 255, 255));&quot;&gt;Queries&lt;/span&gt;&lt;/div&gt;" style="text;html=1;align=center;verticalAlign=middle;resizable=0;points=[];autosize=1;strokeColor=none;fillColor=none;" parent="1" vertex="1">
          <mxGeometry x="682.9" y="342" width="90" height="45" as="geometry" />
        </mxCell>
        <mxCell id="3-WSOy0jhSaHZW4H2ldb-79" value="" style="sketch=0;html=1;aspect=fixed;strokeColor=none;shadow=0;fillColor=#3B8DF1;verticalAlign=top;labelPosition=center;verticalLabelPosition=bottom;shape=mxgraph.gcp2.big_query" parent="1" vertex="1">
          <mxGeometry x="713.37" y="306" width="53.46" height="54" as="geometry" />
        </mxCell>
        <mxCell id="3-WSOy0jhSaHZW4H2ldb-80" value="" style="shape=flexArrow;endArrow=classic;html=1;rounded=0;endWidth=19;endSize=5.67;width=12;fillColor=#99CCFF;" parent="1" edge="1">
          <mxGeometry width="50" height="50" relative="1" as="geometry">
            <mxPoint x="162" y="306" as="sourcePoint" />
            <mxPoint x="225" y="306" as="targetPoint" />
          </mxGeometry>
        </mxCell>
      </root>
    </mxGraphModel>
  </diagram>
</mxfile>
